<svg width="1920" height="729" viewBox="0 0 1920 729" fill="none" xmlns="http://www.w3.org/2000/svg">
<rect width="1920" height="728" transform="translate(0 1)" fill="#050618"/>
<rect width="1920" height="171" transform="matrix(1 0 0 -1 0 729)" fill="#050618"/>
<rect width="1920" height="147" transform="matrix(1 0 0 -1 0 558)" fill="#050618"/>
<rect width="1920" height="123" transform="matrix(1 0 0 -1 0 411)" fill="#050618"/>
<rect width="1920" height="98" transform="matrix(1 0 0 -1 0 289)" fill="#050618"/>
<rect width="1920" height="73" transform="matrix(1 0 0 -1 0 191)" fill="#050618"/>
<rect width="1920" height="49" transform="matrix(1 0 0 -1 0 118)" fill="#050618"/>
<rect width="1920" height="171" transform="matrix(1 0 0 -1 0 729)" fill="url(#paint0_linear_630_241)"/>
<rect width="1920" height="147" transform="matrix(1 0 0 -1 0 558)" fill="url(#paint1_linear_630_241)"/>
<rect width="1920" height="123" transform="matrix(1 0 0 -1 0 411)" fill="url(#paint2_linear_630_241)"/>
<rect width="1920" height="96" transform="matrix(1 0 0 -1 0 290)" fill="url(#paint3_linear_630_241)"/>
<rect width="1920" height="74" transform="matrix(1 0 0 -1 0 194)" fill="url(#paint4_linear_630_241)"/>
<rect width="1920" height="51" transform="matrix(1 0 0 -1 0 120)" fill="url(#paint5_linear_630_241)"/>
<rect width="1920" height="38" transform="matrix(1 0 0 -1 0 69)" fill="url(#paint6_linear_630_241)"/>
<rect width="1920" height="31" transform="matrix(1 0 0 -1 0 31)" fill="url(#paint7_linear_630_241)"/>
<defs>
<linearGradient id="paint0_linear_630_241" x1="960" y1="0" x2="960" y2="171" gradientUnits="userSpaceOnUse">
<stop stop-color="#5F64E7" stop-opacity="0"/>
<stop offset="1" stop-color="#5F64E7"/>
</linearGradient>
<linearGradient id="paint1_linear_630_241" x1="960" y1="0" x2="960" y2="147" gradientUnits="userSpaceOnUse">
<stop stop-color="#5F64E7" stop-opacity="0"/>
<stop offset="1" stop-color="#5F64E7"/>
</linearGradient>
<linearGradient id="paint2_linear_630_241" x1="960" y1="0" x2="960" y2="123" gradientUnits="userSpaceOnUse">
<stop stop-color="#5F64E7" stop-opacity="0"/>
<stop offset="1" stop-color="#5F64E7"/>
</linearGradient>
<linearGradient id="paint3_linear_630_241" x1="960" y1="0" x2="960" y2="96" gradientUnits="userSpaceOnUse">
<stop stop-color="#5F64E7" stop-opacity="0"/>
<stop offset="1" stop-color="#5F64E7"/>
</linearGradient>
<linearGradient id="paint4_linear_630_241" x1="960" y1="0" x2="960" y2="74" gradientUnits="userSpaceOnUse">
<stop stop-color="#5F64E7" stop-opacity="0"/>
<stop offset="1" stop-color="#5F64E7"/>
</linearGradient>
<linearGradient id="paint5_linear_630_241" x1="960" y1="0" x2="960" y2="51" gradientUnits="userSpaceOnUse">
<stop stop-color="#5F64E7" stop-opacity="0"/>
<stop offset="1" stop-color="#5F64E7"/>
</linearGradient>
<linearGradient id="paint6_linear_630_241" x1="960" y1="0" x2="960" y2="38" gradientUnits="userSpaceOnUse">
<stop stop-color="#5F64E7" stop-opacity="0"/>
<stop offset="1" stop-color="#5F64E7"/>
</linearGradient>
<linearGradient id="paint7_linear_630_241" x1="960" y1="0" x2="960" y2="31" gradientUnits="userSpaceOnUse">
<stop stop-color="#5F64E7" stop-opacity="0"/>
<stop offset="1" stop-color="#5F64E7"/>
</linearGradient>
</defs>
</svg>
