<svg width="689" height="94" viewBox="0 0 689 94" fill="none" xmlns="http://www.w3.org/2000/svg">
<path d="M142 58.5L0 93H689L632.323 64.3869L366.678 37L232.5 72.5L142 58.5Z" fill="white"/>
<path d="M53.2486 37.1135C57.5512 53.9927 48.4319 73.7572 54.3165 93.0923H98.6053C98.6053 93.0923 93.1899 61.4843 84.7278 37.7905C76.2657 14.0967 59.3416 6.98852 54.6028 10.7118C49.8641 14.4351 48.8483 19.8508 53.2486 37.1135Z" fill="#23222D"/>
<circle cx="62.3868" cy="25.605" r="3.38483" fill="#5F64E7"/>
<circle cx="62.3871" cy="25.6049" r="1.35393" fill="#23222D"/>
<path d="M42.4163 0.557233C47.4936 2.24969 52.1195 6.53714 55.9556 10.0348C51.8939 11.3887 55.1659 20.5277 56.2941 22.2202L36.6621 1.2342C36.8878 0.782888 39.5905 -0.384721 42.4163 0.557233Z" fill="#FF794F"/>
<mask id="mask0_708_2" style="mask-type:alpha" maskUnits="userSpaceOnUse" x="50" y="9" width="49" height="85">
<path d="M53.2486 37.1135C57.5512 53.9927 48.4319 73.7572 54.3165 93.0923H98.6053C98.6053 93.0923 93.1899 61.4843 84.7278 37.7905C76.2657 14.0967 59.3416 6.98852 54.6028 10.7118C49.8641 14.4351 48.8483 19.8508 53.2486 37.1135Z" fill="#23222D"/>
</mask>
<g mask="url(#mask0_708_2)">
<ellipse cx="72.3905" cy="77.9606" rx="13.0302" ry="29.0026" fill="white"/>
</g>
<path d="M225.586 36.9135C229.889 53.7927 220.77 73.5573 226.654 92.8924H270.943C270.943 92.8924 265.528 61.2844 257.066 37.5905C248.604 13.8967 231.68 6.78857 226.941 10.5119C222.202 14.2352 221.186 19.6509 225.586 36.9135Z" fill="#23222D"/>
<circle cx="234.725" cy="25.4051" r="3.38483" fill="#5F64E7"/>
<circle cx="234.725" cy="25.405" r="1.35393" fill="#23222D"/>
<path d="M214.754 0.357281C219.831 2.04974 224.457 6.33719 228.294 9.83485C224.232 11.1888 227.504 20.3278 228.632 22.0202L209 1.03425C209.226 0.582937 211.928 -0.584672 214.754 0.357281Z" fill="#FF794F"/>
<mask id="mask1_708_2" style="mask-type:alpha" maskUnits="userSpaceOnUse" x="222" y="9" width="49" height="84">
<path d="M225.586 36.9135C229.889 53.7927 220.77 73.5573 226.654 92.8924H270.943C270.943 92.8924 265.528 61.2844 257.066 37.5905C248.604 13.8967 231.68 6.78857 226.941 10.5119C222.202 14.2352 221.186 19.6509 225.586 36.9135Z" fill="#23222D"/>
</mask>
<g mask="url(#mask1_708_2)">
<ellipse cx="244.728" cy="77.7604" rx="13.0302" ry="29.0026" fill="white"/>
</g>
<path d="M336.356 37.1135C332.053 53.9927 341.173 73.7572 335.288 93.0923H290.999C290.999 93.0923 296.415 61.4843 304.877 37.7905C313.339 14.0967 330.263 6.98852 335.002 10.7118C339.74 14.4351 340.756 19.8508 336.356 37.1135Z" fill="#23222D"/>
<circle cx="3.38483" cy="3.38483" r="3.38483" transform="matrix(-1 0 0 1 330.603 22.2202)" fill="#5F64E7"/>
<circle cx="1.35393" cy="1.35393" r="1.35393" transform="matrix(-1 0 0 1 328.571 24.251)" fill="#23222D"/>
<path d="M347.188 0.557233C342.111 2.24969 337.485 6.53714 333.649 10.0348C337.711 11.3887 334.439 20.5277 333.31 22.2202L352.942 1.2342C352.717 0.782888 350.014 -0.384721 347.188 0.557233Z" fill="#FF794F"/>
<mask id="mask2_708_2" style="mask-type:alpha" maskUnits="userSpaceOnUse" x="290" y="9" width="50" height="85">
<path d="M336.356 37.1135C332.053 53.9927 341.173 73.7572 335.288 93.0923H290.999C290.999 93.0923 296.415 61.4843 304.877 37.7905C313.339 14.0967 330.263 6.98852 335.002 10.7118C339.74 14.4351 340.756 19.8508 336.356 37.1135Z" fill="#23222D"/>
</mask>
<g mask="url(#mask2_708_2)">
<ellipse cx="13.0302" cy="29.0026" rx="13.0302" ry="29.0026" transform="matrix(-1 0 0 1 330.244 48.958)" fill="white"/>
</g>
</svg>
