<svg width="62" height="93" viewBox="0 0 62 93" fill="none" xmlns="http://www.w3.org/2000/svg">
<path d="M16.586 36.9136C20.8886 53.7929 11.7693 73.5574 17.6539 92.8925H61.9427C61.9427 92.8925 56.5273 61.2845 48.0652 37.5907C39.6031 13.8968 22.679 6.78869 17.9402 10.512C13.2015 14.2353 12.1857 19.651 16.586 36.9136Z" fill="#23222D"/>
<circle cx="25.7247" cy="25.4051" r="3.38483" fill="#5F64E7"/>
<circle cx="25.725" cy="25.4051" r="1.35393" fill="#23222D"/>
<path d="M5.75421 0.357281C10.8315 2.04974 15.4574 6.33719 19.2935 9.83485C15.2317 11.1888 18.5037 20.3278 19.632 22.0202L0 1.03425C0.225655 0.582937 2.92842 -0.584672 5.75421 0.357281Z" fill="#FF794F"/>
<mask id="mask0_145_492" style="mask-type:alpha" maskUnits="userSpaceOnUse" x="13" y="9" width="49" height="84">
<path d="M16.586 36.9135C20.8886 53.7927 11.7693 73.5573 17.6539 92.8924H61.9427C61.9427 92.8924 56.5273 61.2844 48.0652 37.5905C39.6031 13.8967 22.679 6.78857 17.9402 10.5119C13.2015 14.2352 12.1857 19.6509 16.586 36.9135Z" fill="#23222D"/>
</mask>
<g mask="url(#mask0_145_492)">
<ellipse cx="35.7279" cy="77.7605" rx="13.0302" ry="29.0026" fill="white"/>
</g>
</svg>
